<svg xmlns="http://www.w3.org/2000/svg" height="40px" viewBox="0 -960 960 960" width="40px" fill="#e3e3e3"><path d="M720.41-333.26ZM470.05-583.87ZM125.13-180q-10.68 0-17.9-7.26-7.23-7.27-7.23-18 0-10.74 7.23-17.87 7.22-7.13 17.9-7.13H465.8q10.67 0 17.9 7.27 7.22 7.26 7.22 18 0 10.73-7.22 17.86-7.23 7.13-17.9 7.13H125.13Zm198.38-549.74L273.26-780h518.53q10.68 0 17.91 7.26 7.22 7.27 7.22 18 0 10.74-7.22 17.87-7.23 7.13-17.91 7.13H323.51Zm396.83 240.51q11.89 0 20.21-8.52 8.32-8.51 8.32-19.87 0-11.64-8.31-20.08-8.32-8.45-20.63-8.45-10.88 0-19.43 8.44-8.55 8.44-8.55 20.5 0 11.13 8.64 19.56 8.65 8.42 19.75 8.42ZM854.15-199.1l-40.56-40.57v-347.64q0-2.69-1.92-4.61-1.93-1.93-4.62-1.93H633.36q-2.44 0-4.49 1.93-2.05 1.92-2.05 4.61v160.87l-50.25-50.25v-120.62q0-18.99 13.97-32.89 13.97-13.9 33.08-13.9h193.43q19 0 32.9 13.9 13.89 13.9 13.89 32.89v370.21q0 7.83-2.65 14.82t-7.04 13.18ZM799.69-82.46 701.9-180h-78.28q-19.11 0-33.08-13.97-13.97-13.98-13.97-33.08v-78.28l-386.31-386.7v341.77q0 4.62 3.84 8.47 3.85 3.84 8.47 3.84H465.8q10.67 0 17.9 7.27 7.22 7.26 7.22 17.99 0 10.74-7.22 17.87-7.23 7.13-17.9 7.13H202.57q-25.79 0-44.18-18.39T140-350.26v-367.17q0-5.9 1.1-10.98 1.11-5.09 3.44-9.59l-68.59-68.33q-7.23-7.23-7.42-17.5-.2-10.27 7.42-17.89 7.62-7.61 17.69-7.61 10.08 0 17.69 7.61l724.16 724.13q7.23 7.23 7.09 17.5-.15 10.27-7.76 17.75-7.62 7.49-17.69 7.49-10.08 0-17.44-7.61ZM367.31-515Z"/></svg>